<?xml version="1.0" standalone="no"?>
<!DOCTYPE svg PUBLIC "-//W3C//DTD SVG 20010904//EN"
 "http://www.w3.org/TR/2001/REC-SVG-20010904/DTD/svg10.dtd">
<svg version="1.0" xmlns="http://www.w3.org/2000/svg"
 width="512.000000pt" height="512.000000pt" viewBox="0 0 512.000000 512.000000"
 preserveAspectRatio="xMidYMid meet">
<metadata>
Created by potrace 1.14, written by Peter Selinger 2001-2017
</metadata>
<g transform="translate(0.000000,512.000000) scale(0.100000,-0.100000)"
fill="#000000" stroke="none">
<path d="M2488 5071 c-428 -323 -942 -544 -1453 -625 -191 -31 -282 -38 -540
-42 l-260 -5 -3 -177 c-4 -208 12 -609 34 -836 96 -1026 404 -1854 909 -2444
328 -383 762 -691 1258 -891 l127 -51 108 44 c162 67 285 125 417 201 911 517
1474 1352 1700 2525 76 397 118 977 100 1411 l-7 187 -127 -6 c-587 -23 -1339
225 -2098 694 l-101 63 -64 -48z m217 -444 c162 -97 524 -279 670 -336 320
-126 586 -189 884 -209 l104 -7 -1469 -1457 -1469 -1457 -23 22 c-13 12 -57
66 -98 119 -373 487 -599 1131 -679 1938 -20 206 -36 646 -28 777 l6 104 96
-6 c128 -9 412 10 591 41 423 71 827 243 1181 503 45 33 87 57 93 53 6 -3 70
-42 141 -85z m1816 -969 c-5 -1229 -392 -2192 -1116 -2779 -222 -180 -499
-341 -768 -448 l-77 -31 -93 36 c-276 108 -566 281 -790 471 l-88 76 908 900
c499 495 1158 1149 1463 1453 305 304 556 551 558 549 2 -2 4 -104 3 -227z"/>
<path d="M1920 3973 c-19 -24 -21 -36 -17 -90 14 -145 125 -317 296 -455 l44
-35 -45 -64 c-58 -81 -107 -179 -147 -292 -17 -49 -31 -90 -31 -91 0 -2 18 -8
41 -15 146 -44 440 -66 676 -51 91 6 172 14 181 19 10 5 59 52 110 103 l92 94
-44 89 c-24 50 -64 118 -89 151 l-45 61 67 55 c162 132 271 317 271 457 0 57
-29 91 -77 91 -50 0 -73 -27 -83 -97 -13 -96 -60 -174 -165 -278 -123 -122
-127 -124 -207 -91 -118 47 -227 43 -337 -13 l-39 -20 -64 48 c-139 105 -231
239 -247 356 -9 68 -34 95 -86 95 -25 0 -39 -7 -55 -27z m489 -789 c12 -15 21
-35 21 -46 0 -26 -44 -68 -71 -68 -32 0 -69 38 -69 72 0 64 80 92 119 42z
m471 6 c26 -26 25 -68 -2 -97 -28 -30 -63 -29 -93 2 -31 30 -32 62 -3 92 27
29 71 30 98 3z"/>
<path d="M1528 3030 c-21 -13 -285 -371 -297 -404 -13 -32 15 -87 50 -98 48
-16 72 5 184 159 59 81 111 152 116 157 4 4 93 -41 198 -100 l191 -109 0 -82
0 -83 -209 0 c-115 0 -217 -3 -225 -6 -23 -9 -294 -366 -302 -398 -13 -54 53
-108 105 -86 16 6 76 76 146 170 l120 159 189 -2 190 -2 11 -67 11 -67 -154
-3 -154 -3 -24 -28 c-24 -28 -24 -30 -24 -248 l0 -221 80 72 79 72 3 97 3 96
99 5 98 5 253 245 253 245 1 116 1 116 -122 6 c-130 7 -254 25 -353 51 -39 10
-130 55 -253 126 -195 112 -234 128 -264 110z"/>
<path d="M2660 2693 l0 -47 45 44 c25 24 45 45 45 47 0 2 -20 3 -45 3 l-45 0
0 -47z"/>
<path d="M3718 2823 l-57 -58 75 -100 c41 -55 84 -108 95 -117 33 -28 73 -23
103 13 29 34 30 38 17 72 -8 19 -169 247 -175 247 -1 0 -27 -26 -58 -57z"/>
<path d="M3010 2132 l-345 -336 -3 -154 -3 -154 23 7 c13 3 56 22 97 42 128
62 241 196 321 380 l38 88 116 3 116 3 0 -258 c1 -187 4 -262 13 -274 20 -27
56 -41 88 -34 58 13 59 19 59 360 l0 312 -26 24 c-24 23 -33 24 -173 27 l-147
3 11 67 11 67 185 3 184 2 120 -159 c144 -193 169 -209 226 -152 16 17 29 40
29 54 0 26 -223 335 -281 390 -29 27 -30 27 -172 27 l-142 -1 -345 -337z"/>
<path d="M2460 1595 c-45 -46 -52 -57 -40 -65 22 -15 89 -34 96 -28 2 3 4 38
2 77 l-3 72 -55 -56z"/>
</g>
</svg>
