<?xml version="1.0" standalone="no"?>
<!DOCTYPE svg PUBLIC "-//W3C//DTD SVG 20010904//EN"
 "http://www.w3.org/TR/2001/REC-SVG-20010904/DTD/svg10.dtd">
<svg version="1.0" xmlns="http://www.w3.org/2000/svg"
 width="512.000000pt" height="512.000000pt" viewBox="0 0 512.000000 512.000000"
 preserveAspectRatio="xMidYMid meet">
<metadata>
Created by potrace 1.14, written by Peter Selinger 2001-2017
</metadata>
<g transform="translate(0.000000,512.000000) scale(0.100000,-0.100000)"
fill="#000000" stroke="none">
<path d="M481 5110 c-68 -16 -157 -66 -206 -115 -31 -30 -74 -97 -96 -145
l-24 -55 -3 -2175 c-2 -1638 0 -2189 9 -2230 25 -116 114 -237 215 -288 106
-54 54 -52 1277 -49 l1131 2 2 50 c1 28 9 85 18 127 9 42 16 79 16 81 0 2
-505 3 -1122 3 -782 -1 -1135 2 -1165 10 -48 12 -78 35 -101 79 -15 27 -16
224 -17 2169 0 1642 3 2148 12 2174 15 45 50 80 94 95 27 9 469 12 1850 12
1648 -1 1817 -2 1844 -17 41 -22 71 -57 83 -98 8 -24 11 -371 11 -1133 -1
-604 1 -1101 4 -1104 3 -2 50 9 104 26 54 16 110 33 126 37 15 3 27 11 27 18
1 6 1 499 1 1096 0 1049 -1 1087 -19 1141 -53 151 -176 261 -323 289 -63 12
-3697 12 -3748 0z"/>
<path d="M1283 4293 c-13 -5 -78 -81 -159 -186 l-22 -27 -30 34 c-39 44 -63
56 -98 50 -38 -7 -64 -33 -70 -73 -4 -26 4 -44 49 -109 80 -113 100 -132 139
-132 41 1 60 16 133 110 33 41 62 77 65 80 13 11 110 142 111 151 1 5 2 15 3
22 3 20 -23 66 -43 77 -20 10 -57 12 -78 3z"/>
<path d="M1847 4170 c-104 -5 -110 -6 -133 -33 -43 -50 -26 -121 34 -150 22
-11 210 -13 972 -11 520 1 950 2 955 3 23 4 48 32 60 68 11 32 11 42 -1 65
-33 63 21 60 -921 61 -472 1 -907 0 -966 -3z"/>
<path d="M983 3320 c-18 -11 -33 -23 -34 -27 0 -5 -2 -18 -5 -31 -5 -30 9 -56
57 -103 22 -21 39 -41 39 -45 0 -3 -23 -31 -51 -62 -46 -51 -50 -59 -45 -91 7
-44 38 -71 81 -71 25 0 43 11 84 51 l52 51 54 -51 c62 -59 106 -68 142 -28 41
43 34 80 -27 146 l-51 55 46 46 c55 56 69 94 47 132 -19 33 -64 51 -95 39 -12
-5 -42 -30 -66 -55 l-45 -45 -52 49 c-29 28 -57 50 -63 50 -5 0 -15 2 -23 5
-7 3 -28 -4 -45 -15z"/>
<path d="M1733 3190 c-60 -36 -53 -139 11 -165 39 -16 1882 -19 1933 -4 81 25
86 149 7 179 -16 6 -395 10 -972 10 -921 0 -948 -1 -979 -20z"/>
<path d="M1109 2341 c-42 -13 -71 -32 -98 -64 -113 -133 -15 -334 160 -326 68
3 133 46 167 109 78 147 -70 329 -229 281z"/>
<path d="M3329 2279 c-15 -15 -19 -28 -14 -47 8 -37 23 -46 123 -77 113 -35
196 -80 231 -124 15 -20 45 -71 65 -115 58 -121 58 -121 34 -143 -30 -27 -102
-132 -125 -183 -29 -64 -55 -148 -51 -162 3 -8 113 -11 406 -11 221 0 404 2
407 5 8 8 -25 107 -61 181 -36 75 -74 129 -111 163 -25 21 -25 27 4 94 77 181
120 226 263 275 3 1 12 4 20 8 8 3 39 13 69 21 30 9 63 23 73 33 39 35 11 103
-43 103 -14 0 -70 -15 -125 -34 -217 -74 -251 -100 -324 -254 -29 -59 -56
-117 -62 -129 -9 -18 -16 -21 -42 -15 -42 8 -94 8 -138 -1 -25 -5 -38 -4 -38
3 0 30 -111 239 -146 274 -32 31 -164 108 -184 107 -3 -1 -41 10 -84 24 -96
30 -120 31 -147 4z m568 -611 c32 -35 37 -64 17 -98 -45 -76 -154 -46 -154 43
0 66 93 103 137 55z m303 12 c26 -14 43 -71 31 -103 -12 -31 -56 -56 -91 -51
-30 5 -70 47 -70 75 0 26 26 76 42 82 22 9 69 7 88 -3z"/>
<path d="M1755 2243 c-30 -8 -65 -55 -65 -88 0 -47 33 -93 72 -100 41 -7 1175
-1 1203 7 22 6 23 11 1 88 -9 30 -16 65 -16 78 l0 22 -587 -1 c-324 -1 -597
-4 -608 -6z"/>
<path d="M3062 1780 c-21 -13 -33 -29 -37 -52 -6 -39 -6 -38 29 -153 15 -49
29 -96 31 -105 2 -8 10 -34 19 -58 8 -23 15 -45 15 -48 -1 -2 4 -18 11 -34 14
-34 34 -44 203 -101 l127 -43 1 -155 c0 -86 1 -178 2 -204 2 -27 -2 -52 -8
-56 -5 -4 -41 -21 -80 -38 -222 -99 -220 -98 -232 -183 -2 -19 -8 -51 -13 -70
-5 -19 -12 -51 -15 -70 -3 -19 -8 -46 -10 -60 -3 -14 -7 -36 -10 -50 -3 -14
-10 -50 -16 -80 -6 -30 -13 -80 -16 -111 -5 -53 -4 -57 27 -82 42 -36 83 -35
121 2 16 16 29 35 30 43 0 7 2 20 4 28 2 8 6 31 9 50 4 19 9 46 11 60 3 14 8
36 10 50 3 14 8 41 11 60 3 19 7 43 10 52 5 18 9 35 18 94 7 41 9 42 94 80 48
21 89 37 92 34 3 -2 17 -34 31 -70 65 -164 170 -288 296 -350 67 -33 86 -38
163 -43 197 -14 397 154 495 415 10 27 19 48 22 48 2 0 39 -18 82 -40 l80 -39
16 -73 c8 -40 17 -82 19 -93 8 -42 48 -202 62 -253 11 -39 22 -56 44 -67 37
-19 65 -19 94 0 47 31 50 58 16 205 -17 74 -42 187 -56 250 -14 63 -32 126
-39 140 -9 17 -55 46 -148 93 l-134 67 3 206 c1 113 4 207 6 209 2 2 64 24
138 50 74 25 143 53 152 63 18 18 128 370 128 409 0 14 -13 38 -30 55 -27 27
-36 30 -71 25 -27 -3 -47 -13 -57 -28 -16 -21 -46 -110 -91 -264 -18 -59 -18
-60 -77 -82 -32 -13 -59 -23 -59 -22 0 0 -13 -5 -30 -12 -23 -10 -153 -13
-535 -15 l-505 -2 -105 35 c-58 19 -110 40 -116 46 -6 7 -26 62 -44 122 -44
150 -59 191 -80 210 -27 24 -73 26 -108 5z"/>
<path d="M1101 1454 c-75 -22 -140 -106 -141 -179 -1 -173 194 -271 325 -163
96 80 98 223 4 302 -57 48 -117 61 -188 40z"/>
<path d="M1750 1354 c-65 -28 -80 -105 -31 -155 16 -16 35 -30 43 -30 7 -1
246 -2 531 -3 456 -1 517 1 513 14 -3 8 -18 53 -34 100 l-28 85 -484 0 c-342
0 -491 -3 -510 -11z"/>
</g>
</svg>
